<svg xmlns="http://www.w3.org/2000/svg" width="102.785" height="141.757" viewBox="0 0 102.785 141.757">
  <g id="그룹_176" data-name="그룹 176" transform="translate(-221.665 -104.516)">
    <path id="패스_64" data-name="패스 64" d="M250.4,148.821c-3.533-3.533,5.785-14.348,18.2-26.771l.476-.473a2.576,2.576,0,0,0,.759-1.829h0a2.585,2.585,0,0,0-3.315-2.484c-7.318,2.166-25.1,8.413-36.473,20.628-15.555,16.715-6.226,32.886,1.926,37.6,7.59,4.393,15.344,6.917,37.862,6.279V137.712C260.643,146.269,253.176,151.592,250.4,148.821Z" transform="translate(0 32.611)"/>
    <path id="패스_65" data-name="패스 65" d="M256.357,137.563c3.537,3.537-5.785,14.352-18.2,26.771l-.473.473a2.573,2.573,0,0,0-.763,1.833h0a2.585,2.585,0,0,0,3.315,2.484c7.318-2.169,25.106-8.417,36.473-20.628,15.555-16.715,6.229-32.886-1.926-37.608-7.586-4.393-15.344-6.913-37.862-6.276v44.062C246.119,140.116,253.586,134.8,256.357,137.563Z" transform="translate(39.352)"/>
    <path id="사각형_297" data-name="사각형 297" d="M0,0H45.749a.9.9,0,0,1,.9.9V25.55a0,0,0,0,1,0,0H0a0,0,0,0,1,0,0V0A0,0,0,0,1,0,0Z" transform="translate(276.271 175.66)"/>
    <path id="사각형_298" data-name="사각형 298" d="M0,0H24.458a.9.9,0,0,1,.9.9V29.446a0,0,0,0,1,0,0H0a0,0,0,0,1,0,0V0A0,0,0,0,1,0,0Z" transform="translate(240.4 246.272) rotate(-90.001)"/>
  </g>
</svg>
