<svg xmlns="http://www.w3.org/2000/svg" width="126" height="126" viewBox="0 0 126 126">
  <g id="그룹_262" data-name="그룹 262" transform="translate(-1676.966 -1183.966)">
    <g id="사각형_444" data-name="사각형 444" transform="translate(1676.966 1183.966)" fill="none" stroke="#fff" stroke-width="1">
      <rect width="126" height="126" rx="20" stroke="none"/>
      <rect x="0.5" y="0.5" width="125" height="125" rx="19.5" fill="none"/>
    </g>
    <g id="다각형_8" data-name="다각형 8" transform="translate(1768.966 1217.966) rotate(90)" fill="none">
      <path d="M25.4,4.558a3,3,0,0,1,5.209,0l22.83,39.953A3,3,0,0,1,50.83,49H5.17a3,3,0,0,1-2.6-4.488Z" stroke="none"/>
      <path d="M 28 4.046684265136719 C 27.27323913574219 4.046684265136719 26.62409019470215 4.423404693603516 26.26350975036621 5.054416656494141 L 3.433048248291016 45.00772476196289 C 3.075248718261719 45.63387680053711 3.077739715576172 46.38009643554688 3.439720153808594 47.00384521484375 C 3.801700592041016 47.62760543823242 4.448360443115234 47.99999618530273 5.169540405273438 47.99999618530273 L 50.83045959472656 47.99999618530273 C 51.55163955688477 47.99999618530273 52.19829940795898 47.62760543823242 52.56027984619141 47.00384521484375 C 52.92226028442383 46.38009643554688 52.92475128173828 45.63387680053711 52.56695175170898 45.00772476196289 L 29.73649024963379 5.054416656494141 C 29.37590980529785 4.423404693603516 28.72674942016602 4.046684265136719 28 4.046684265136719 M 27.99999618530273 3.046688079833984 C 29.01444053649902 3.046688079833984 30.02888488769531 3.550552368164062 30.6047306060791 4.558277130126953 L 53.43518829345703 44.5115852355957 C 54.57802963256836 46.51154708862305 53.13393020629883 48.99999618530273 50.83045959472656 48.99999618530273 L 5.169540405273438 48.99999618530273 C 2.866069793701172 48.99999618530273 1.421970367431641 46.51154708862305 2.564811706542969 44.5115852355957 L 25.3952693939209 4.558277130126953 C 25.97110939025879 3.550552368164062 26.98555183410645 3.046688079833984 27.99999618530273 3.046688079833984 Z" stroke="none" fill="#fff"/>
    </g>
  </g>
</svg>