<svg xmlns="http://www.w3.org/2000/svg" width="169.498" height="169.5" viewBox="0 0 169.498 169.5">
  <path id="패스_158" data-name="패스 158" d="M7693.607,187.225H7577.918a26.9,26.9,0,0,0-26.905,26.9v115.69a26.9,26.9,0,0,0,26.905,26.9h115.689a26.905,26.905,0,0,0,26.9-26.9V214.13A26.9,26.9,0,0,0,7693.607,187.225Zm-23.465,85.413a4.033,4.033,0,0,1-1.5,1.5L7614.9,304.851a4.035,4.035,0,0,1-6.038-3.51V239.918a4.034,4.034,0,0,1,6.035-3.5l53.748,30.712A4.036,4.036,0,0,1,7670.143,272.638Z" transform="translate(-7551.014 -187.225)" fill="#fff"/>
</svg>