<svg xmlns="http://www.w3.org/2000/svg" width="1840" height="169.499" viewBox="0 0 1840 169.499">
  <g id="그룹_360" data-name="그룹 360" transform="translate(0)">
    <path id="패스_1" data-name="패스 1" d="M-4011.428,494.5V648.662h58.257v-73.8h40.235V563.91h-40.235V505.43h56.15V494.5Z" transform="translate(5316.885 -488.256)"/>
    <path id="패스_2" data-name="패스 2" d="M-3918,493.976h0c-37.208,0-67.374,29.9-67.374,66.78V592.78c0,36.879,30.167,66.776,67.374,66.776h0c37.208,0,67.371-29.9,67.371-66.776V560.756C-3850.628,523.872-3880.791,493.976-3918,493.976Zm17.667,138.936A17.589,17.589,0,0,1-3918,650.423h0a17.589,17.589,0,0,1-17.666-17.511V520.624A17.59,17.59,0,0,1-3918,503.108h0a17.592,17.592,0,0,1,17.667,17.515Z" transform="translate(5405.641 -490.057)"/>
    <path id="패스_3" data-name="패스 3" d="M-4160.248,493.1h0c-37.213,0-67.376,29.9-67.376,66.781V591.9c0,36.88,30.163,66.776,67.376,66.776h0c37.209,0,67.369-29.9,67.369-66.776V559.876C-4092.879,523-4123.039,493.1-4160.248,493.1Zm17.668,138.937a17.59,17.59,0,0,1-17.668,17.51h0a17.592,17.592,0,0,1-17.671-17.51V519.744a17.592,17.592,0,0,1,17.671-17.511h0a17.59,17.59,0,0,1,17.668,17.511Z" transform="translate(4579.095 -493.096)"/>
    <path id="패스_4" data-name="패스 4" d="M-3977.016,494.5V558.75h-18.831V494.5H-4054.1V648.662h58.256V569.221h18.831v79.442h58.254V494.5Z" transform="translate(5171.127 -488.256)"/>
    <path id="패스_5" data-name="패스 5" d="M-3845.407,608.629a57.668,57.668,0,0,0,47.941-56.619h0c0-31.762-25.988-57.506-58.045-57.506h-63.847V651.65h57.935V610.456l52.91,41.194h17.576Zm-16.015-68.588h38.642a11.986,11.986,0,0,1,12.039,11.93h0A11.982,11.982,0,0,1-3822.78,563.9h-38.642Z" transform="translate(5630.936 -488.23)"/>
    <path id="패스_6" data-name="패스 6" d="M-4089.278,494.375l-29.748,68.869-27.792-68.869-160.468-.026V505.06h49.633V648.65h57.937V505.06h43.268l58.355,144.3,43.742-101.251,40.861,101.251,66.957-154.989h-58.143l-30.2,69.924-12.778-31.671,16.522-38.253h-58.143" transform="translate(4307.287 -488.769)"/>
    <path id="패스_7" data-name="패스 7" d="M-3938.58,494.5h-12.527V594.733c0,33.384,27.561,60.7,61.256,60.7,33.712,0,61.3-27.338,61.3-60.748V494.5h-58.179V601.009a25.586,25.586,0,0,1-25.7,25.467h-.334a25.679,25.679,0,0,1-25.811-25.467Z" transform="translate(5521.293 -488.254)"/>
    <path id="패스_8" data-name="패스 8" d="M-4136.556,563.572V519.74a17.588,17.588,0,0,1,17.669-17.51,17.587,17.587,0,0,1,17.663,17.51v28.153h48.6a67.212,67.212,0,0,0-66.267-54.8h0c-37.209,0-67.375,29.9-67.375,66.776v14.178h85.038v57.978a17.587,17.587,0,0,1-17.663,17.51,17.588,17.588,0,0,1-17.669-17.51V591.583h-49.706v.313c0,36.88,30.166,66.776,67.375,66.776h0c37.2,0,67.373-29.9,67.373-66.776V563.572Z" transform="translate(4720.218 -493.093)"/>
    <path id="패스_9" data-name="패스 9" d="M-4038.665,563.572V519.74A17.589,17.589,0,0,1-4021,502.23a17.589,17.589,0,0,1,17.667,17.51v28.153h48.6A67.214,67.214,0,0,0-4021,493.1h0c-37.206,0-67.368,29.9-67.368,66.776v14.178h85.035v57.978A17.588,17.588,0,0,1-4021,649.539a17.589,17.589,0,0,1-17.666-17.51V591.583h-49.7v.313c0,36.88,30.163,66.776,67.368,66.776h0c37.208,0,67.375-29.9,67.375-66.776V563.572Z" transform="translate(5054.226 -493.093)"/>
    <path id="패스_10" data-name="패스 10" d="M-3868.515,651.925l-47.208-129.8c-13.964-38.405-68.859-38.172-82.5.349l-42.032,119.069h-53.494V498.065H-4152v154.2h121.523l31.056-88.945c5.7-16.975,30.048-16.635,35.278.49L-3937.234,652V652Z" transform="translate(4836.515 -491.864)"/>
  </g>
</svg>
